<svg id="visual" viewBox="0 0 69 93" width="69" height="93" xmlns="http://www.w3.org/2000/svg" xmlns:xlink="http://www.w3.org/1999/xlink" version="1.1"><rect x="0" y="0" width="69" height="93" fill="#e7e5e4"></rect><path d="M0 18L35 18L35 18L69 18L69 18L69 94L69 94L35 94L35 94L0 94Z" fill="#c3bebc"></path><path d="M0 36L35 36L35 36L69 36L69 36L69 94L69 94L35 94L35 94L0 94Z" fill="#b1aba8"></path><path d="M0 55L35 55L35 55L69 55L69 55L69 94L69 94L35 94L35 94L0 94Z" fill="#999390"></path><path d="M0 73L35 73L35 73L69 73L69 73L69 94L69 94L35 94L35 94L0 94Z" fill="#7c7674"></path></svg>