<?xml version="1.0" encoding="UTF-8" standalone="no"?>
<svg
    xmlns:dc="http://purl.org/dc/elements/1.1/"
    xmlns:cc="http://creativecommons.org/ns#"
    xmlns:rdf="http://www.w3.org/1999/02/22-rdf-syntax-ns#"
    xmlns:svg="http://www.w3.org/2000/svg"
    xmlns="http://www.w3.org/2000/svg"
    xmlns:sodipodi="http://sodipodi.sourceforge.net/DTD/sodipodi-0.dtd"
    xmlns:inkscape="http://www.inkscape.org/namespaces/inkscape"
    inkscape:version="1.1-dev (60faa23, 2020-06-06)"
    sodipodi:docname="CLUB-1.svg"
    width="69.087997mm"
    height="93.979996mm"
    viewBox="0 0 261.12 355.19999"
    version="1.1"
    id="svg8">
    <title
        id="title8745">Vector Playing Cards</title>
    <defs
        id="defs2" />
    <metadata
        id="metadata5">
        <rdf:RDF>
            <cc:Work
                rdf:about="">
                <dc:format>image/svg+xml</dc:format>
                <dc:type
                    rdf:resource="http://purl.org/dc/dcmitype/StillImage" />
                <dc:title>Vector Playing Cards</dc:title>
                <dc:creator>
                    <cc:Agent>
                        <dc:title>Chris Aguilar</dc:title>
                    </cc:Agent>
                </dc:creator>
                <dc:rights>
                    <cc:Agent>
                        <dc:title>Copyright 2011, 017</dc:title>
                    </cc:Agent>
                </dc:rights>
                <dc:publisher>
                    <cc:Agent>
                        <dc:title>Chris Aguilar</dc:title>
                    </cc:Agent>
                </dc:publisher>
                <dc:description>Vector Playing Cards</dc:description>
                <dc:contributor>
                    <cc:Agent>
                        <dc:title>Chris Aguilar</dc:title>
                    </cc:Agent>
                </dc:contributor>
                <cc:license
                    rdf:resource="https://opensource.org/licenses/lgpl-3.0.html" />
            </cc:Work>
        </rdf:RDF>
    </metadata>
    <g
        id="layer1"
        transform="matrix(1.0966325,0,0,1.067954,1553.4974,-3.0401173)">
        <g
            transform="matrix(1.07145,0,0,1.07009,-1913.26,1167.5)"
            id="CLUB-1">
            <path
                d="m 574.6454,-956.47145 c -9.77448,0.21226 -14.15742,11.21727 -6.91838,19.76329 1.04991,1.24653 1.15822,1.96187 -0.76457,0.76452 -4.87385,-3.25919 -14.21926,-1.11662 -14.69781,8.84728 -0.59115,12.27695 16.56285,15.81427 19.78371,2.75967 0.17004,-1.37736 1.28941,-1.34593 1.01952,0.60916 -0.29367,5.30641 -1.95083,10.26606 -4.22862,15.10253 3.83908,0 8.12955,0 11.62019,0 -2.27768,-4.83647 -3.93495,-9.79612 -4.22863,-15.10253 -0.26989,-1.95509 0.84949,-1.98652 1.01953,-0.60916 3.22086,13.0546 20.37486,9.51728 19.78371,-2.75967 -0.47845,-9.9639 -9.82396,-12.10647 -14.69781,-8.84728 -1.92278,1.19735 -1.81447,0.48201 -0.76457,-0.76452 7.23905,-8.54602 2.8561,-19.55102 -6.91829,-19.76329 0,-6e-5 0,5e-5 -0.01,0 z"
                id="path147-0-8-1-6-1-1-0-9-1-8"
                style="display:inline;opacity:1" />
        </g>
    </g>
</svg>
